<svg xmlns="http://www.w3.org/2000/svg" width="77" height="78" viewBox="0 0 77 78"><g><g><path fill="#ffd738" d="M38.5 0C59.763 0 77 17.336 77 38.722c0 21.387-17.237 38.724-38.5 38.724S0 60.11 0 38.723C0 17.337 17.237 0 38.5 0z"/></g><g><path fill="#363636" d="M58.558 50.693c.087.68-.116 1.272-.606 1.775L52.2 58.323c-.26.296-.599.548-1.017.755-.418.207-.829.34-1.232.399-.03 0-.116.007-.26.022a5.677 5.677 0 0 1-.562.022c-.548 0-1.435-.096-2.661-.288-1.226-.192-2.725-.665-4.499-1.42-1.774-.754-3.785-1.885-6.035-3.393-2.249-1.508-4.643-3.579-7.18-6.21-2.02-2.042-3.692-3.994-5.019-5.857-1.326-1.863-2.393-3.586-3.2-5.168-.808-1.582-1.414-3.017-1.818-4.303-.403-1.286-.677-2.395-.821-3.327-.145-.932-.202-1.664-.174-2.196.03-.533.044-.828.044-.887.057-.414.187-.836.389-1.265a3.32 3.32 0 0 1 .735-1.042l5.754-5.9c.404-.414.865-.621 1.384-.621.375 0 .707.11.995.332.288.222.534.496.736.82l4.628 9.006c.26.474.332.991.217 1.553a2.789 2.789 0 0 1-.736 1.42l-2.12 2.173a.745.745 0 0 0-.151.289 1.12 1.12 0 0 0-.065.333c.116.62.375 1.33.779 2.129.346.71.88 1.575 1.6 2.595.721 1.02 1.745 2.196 3.072 3.527 1.298 1.36 2.451 2.418 3.46 3.172 1.01.754 1.853 1.309 2.531 1.663.678.355 1.197.57 1.558.644l.54.11c.058 0 .152-.022.282-.066a.716.716 0 0 0 .28-.155l2.466-2.573a2.612 2.612 0 0 1 1.817-.71c.49 0 .88.089 1.168.266h.044l8.349 5.057c.605.385.966.873 1.08 1.464z"/></g></g></svg>